<svg width="42" height="59" xmlns="http://www.w3.org/2000/svg"><path d="M37.57 44.6c0 5.88-5.28 10.68-18.36 10.68-10.86 0-16.14-2.76-16.14-7.14 0-2.52 1.8-4.5 7.44-5.58-5.46-.36-6.96-3.66-6.96-6.18 0-3.12 2.46-5.82 7.8-6.78-4.08-1.8-6.36-5.64-6.36-9.54 0-6.72 5.94-11.1 14.94-11.1 2.94 0 4.08.3 5.22.6l1.02-6.54h8.94l-4.92 8.4c2.64 1.44 4.8 4.14 4.8 8.64 0 6.18-6.18 11.1-13.5 11.1-3 0-4.86-.24-6.3-.6-2.82.66-3.72 1.44-3.72 2.64 0 1.2.9 1.56 6.3 1.26l6.36-.36c8.94-.54 13.44 3.42 13.44 10.5zM25.45 20.06c0-4.2-1.8-6.3-5.52-6.3-3.84 0-5.4 2.1-5.4 6.3 0 4.38 2.28 6.18 5.4 6.18 3.6 0 5.52-1.56 5.52-6.18zm4.86 25.8c0-3-1.8-3.3-7.56-3.3-2.82 0-5.52.24-7.56.48-2.7.78-4.56 2.34-4.56 3.78 0 2.4 1.8 3.48 8.82 3.48 7.92 0 10.86-1.92 10.86-4.44z" fill="#D0011B" fill-rule="evenodd"/></svg>
