<?xml version="1.0" encoding="UTF-8"?>
<svg width="195px" height="59px" viewBox="0 0 195 59" version="1.1" xmlns="http://www.w3.org/2000/svg" xmlns:xlink="http://www.w3.org/1999/xlink">
    <!-- Generator: Sketch 43.2 (39069) - http://www.bohemiancoding.com/sketch -->
    <title>Group</title>
    <desc>Created with Sketch.</desc>
    <defs></defs>
    <g id="Page-1" stroke="none" stroke-width="1" fill="none" fill-rule="evenodd">
        <g id="Artboard" transform="translate(-53.000000, -118.000000)">
            <g id="Group" transform="translate(53.000000, 118.000000)">
                <polygon id="Path" fill="#000000" points="20.55 39.56 20.55 34.1 6.21 27.68 20.55 21.26 20.55 15.8 0.33 24.8 0.33 30.56"></polygon>
                <polygon id="Path" fill="#000000" points="56.97 47 56.97 38.84 40.29 38.84 40.29 0.92 30.03 0.92 30.03 47"></polygon>
                <path d="M94.77,30.32 C94.77,42.2 87.93,47.72 77.91,47.72 C67.35,47.72 60.99,42.2 60.99,30.32 C60.99,18.08 68.01,11.48 77.91,11.48 C88.11,11.48 94.77,18.8 94.77,30.32 Z M84.99,30.08 C84.99,21.02 82.47,17.9 77.91,17.9 C73.47,17.9 70.77,21.26 70.77,30.08 C70.77,37.58 73.23,41 77.91,41 C83.13,41 84.99,37.46 84.99,30.08 Z" id="Combined-Shape" fill="#000000"></path>
                <path d="M132.570007,47.6 C132.570007,53.48 127.290007,58.28 114.210007,58.28 C103.350007,58.28 98.0700073,55.52 98.0700073,51.14 C98.0700073,48.62 99.8700073,46.64 105.510007,45.56 C100.050007,45.2 98.5500073,41.9 98.5500073,39.38 C98.5500073,36.26 101.010007,33.56 106.350007,32.6 C102.270007,30.8 99.9900073,26.96 99.9900073,23.06 C99.9900073,16.34 105.930007,11.96 114.930007,11.96 C117.870007,11.96 119.010007,12.26 120.150007,12.56 L121.170007,6.02 L130.110007,6.02 L125.190007,14.42 C127.830007,15.86 129.990007,18.56 129.990007,23.06 C129.990007,29.24 123.810007,34.16 116.490007,34.16 C113.490007,34.16 111.630007,33.92 110.190007,33.56 C107.370007,34.22 106.470007,35 106.470007,36.2 C106.470007,37.4 107.370007,37.76 112.770007,37.46 L119.130007,37.1 C128.070007,36.56 132.570007,40.52 132.570007,47.6 Z M120.450007,23.06 C120.450007,18.86 118.650007,16.76 114.930007,16.76 C111.090007,16.76 109.530007,18.86 109.530007,23.06 C109.530007,27.44 111.810007,29.24 114.930007,29.24 C118.530007,29.24 120.450007,27.68 120.450007,23.06 Z M125.310007,48.86 C125.310007,45.86 123.510007,45.56 117.750007,45.56 C114.930007,45.56 112.230007,45.8 110.190007,46.04 C107.490007,46.82 105.630007,48.38 105.630007,49.82 C105.630007,52.22 107.430007,53.3 114.450007,53.3 C122.370007,53.3 125.310007,51.38 125.310007,48.86 Z" id="Combined-Shape" fill="#D0011B"></path>
                <path d="M167.85,30.32 C167.85,42.2 161.01,47.72 150.99,47.72 C140.43,47.72 134.07,42.2 134.07,30.32 C134.07,18.08 141.09,11.48 150.99,11.48 C161.19,11.48 167.85,18.8 167.85,30.32 Z M158.07,30.08 C158.07,21.02 155.55,17.9 150.99,17.9 C146.55,17.9 143.85,21.26 143.85,30.08 C143.85,37.58 146.31,41 150.99,41 C156.21,41 158.07,37.46 158.07,30.08 Z" id="Combined-Shape" fill="#000000"></path>
                <polygon id="Path" fill="#000000" points="194.55 30.56 194.55 24.8 174.39 15.8 174.39 21.26 188.67 27.68 174.39 34.1 174.39 39.56"></polygon>
            </g>
        </g>
    </g>
</svg>
